<?xml version="1.0" encoding="UTF-8" standalone="no"?>
<!-- Created with Inkscape (http://www.inkscape.org/) -->

<svg
   width="213.18161mm"
   height="110.31472mm"
   viewBox="0 0 213.18161 110.31472"
   version="1.1"
   id="svg1"
   inkscape:version="1.3.2 (091e20ef0f, 2023-11-25)"
   sodipodi:docname="blhub-logo.svg"
   xmlns:inkscape="http://www.inkscape.org/namespaces/inkscape"
   xmlns:sodipodi="http://sodipodi.sourceforge.net/DTD/sodipodi-0.dtd"
   xmlns="http://www.w3.org/2000/svg"
   xmlns:svg="http://www.w3.org/2000/svg"
   xmlns:rdf="http://www.w3.org/1999/02/22-rdf-syntax-ns#"
   xmlns:cc="http://creativecommons.org/ns#"
   xmlns:dc="http://purl.org/dc/elements/1.1/">
  <title
     id="title1">BLHub Logo</title>
  <sodipodi:namedview
     id="namedview1"
     pagecolor="#505050"
     bordercolor="#eeeeee"
     borderopacity="1"
     inkscape:showpageshadow="false"
     inkscape:pageopacity="0"
     inkscape:pagecheckerboard="true"
     inkscape:deskcolor="#d1d1d1"
     inkscape:document-units="mm"
     inkscape:zoom="1.1945134"
     inkscape:cx="-5.0229657"
     inkscape:cy="112.59815"
     inkscape:window-width="1920"
     inkscape:window-height="1011"
     inkscape:window-x="0"
     inkscape:window-y="0"
     inkscape:window-maximized="1"
     inkscape:current-layer="layer1" />
  <defs
     id="defs1" />
  <g
     inkscape:label="Layer 1"
     inkscape:groupmode="layer"
     id="layer1"
     transform="translate(-0.99017638,-2.4037156)">
    <g
       id="g2"
       transform="matrix(0.26458333,0,0,0.26458333,-162.37071,-79.529432)">
      <path
         style="fill:#5ea4bd"
         d="m 834.155,705.9874 c -5.93867,-4.9695 -9.42756,-11.1741 -15.52191,-15.95339 -9.69937,-7.60641 -4.65636,-2.80149 -49.97809,-15.65461 -43.22111,-12.25739 -7.38403,1.04987 -58,22.54956 -11.44423,4.86106 -35.11998,8.29649 -48.94826,-2.84558 -7.36672,-5.93569 -16.85136,-2.36581 -22.12378,-5.71253 -1.23525,-0.78409 29.98814,-32.27761 57.17011,-39.78292 5.2968,-1.46251 10.38705,-5.22878 10.3951,-7.69132 0.0337,-10.61761 -42.30679,-20.80208 -55.62247,-141.90921 -2.12533,-62.72206 28.70319,-108.92822 -21.37887,-157.7935 -8.78318,-8.56978 -13.45611,-30.57555 -12.62515,-31.40651 0.90175,-0.90175 2.796,3.49831 6.60641,7.50504 15.84422,16.66058 31.87556,1.2728 56.64531,33.82767 26.50162,-8.55393 37.79824,17.11211 77.8816,13.2164 l -3.42791,3.55661 c -49.0151,26.61254 -89.17031,26.10782 -69.36244,99.64414 22.86557,69.9832 113.94917,108.57815 170.79035,88.43741 46.6694,-16.91228 65.24318,-3.3516 141.39201,31.38798 7.00969,3.19787 -8.25888,52.97674 -47.39201,77.04628 -37.4063,25.50573 -92.54761,20.01539 -86.88834,25.64809 8.54151,8.50141 6.93888,15.9454 9.42614,29.00453 0.66073,3.4691 1.1179,8.56094 0.0956,7.36703 -5.27323,-6.15842 -32.47147,-14.86645 -39.1334,-20.44117 z"
         id="path3"
         sodipodi:nodetypes="ssssssssssssscsssssssss" />
    </g>
    <path
       style="fill:#ffffff;stroke-width:0.199191"
       d="m 155.40729,60.816076 c -0.29151,-0.0577 -1.18594,-0.23583 -1.9876,-0.39593 -2.97685,-0.5945 -5.74826,-2.82155 -7.0413,-5.65823 -1.88672,-4.1391 -2.23205,-7.94106 -2.23319,-24.58801 v -13.10869 h 4.25796 4.25797 l -0.17431,11.51169 c -0.25117,16.589 0.1274,20.56648 2.17406,22.84174 1.33419,1.48325 3.01294,1.93431 6.67618,1.79385 4.33723,-0.16631 5.89957,-1.26912 7.00963,-4.94784 0.50848,-1.68514 0.54557,-2.63459 0.64429,-16.49375 l 0.10474,-14.70569 h 4.08798 4.08794 l -0.005,14.30644 c -0.003,8.07804 -0.12052,15.11757 -0.27006,16.1696 -1.1221,7.89486 -4.35031,11.99669 -10.27713,13.05823 -1.861,0.33332 -9.9387,0.488 -11.31102,0.21659 z M 38.669673,38.909446 v -21.84423 l 9.73918,0.005 c 10.5695,0.005 12.15959,0.16274 14.82016,1.47011 1.78724,0.87823 3.85339,3.15686 4.63693,5.11377 0.38894,0.97137 1.51744,6.62654 -0.24918,10.22979 -0.90692,1.84974 -2.27042,3.2838 -3.5473,3.73086 -0.41452,0.14514 -0.75324,0.342 -0.75271,0.43747 0,0.0955 0.53652,0.39478 1.19105,0.66511 1.55442,0.64204 3.39301,2.71317 4.12353,4.64506 1.1762,3.1106 0.9366,8.31389 -0.52523,11.40636 -0.81539,1.72497 -2.53944,3.60557 -3.98171,4.34332 -2.71169,1.38706 -3.16333,1.43455 -14.65548,1.54148 l -10.79924,0.10049 z m 20.17104,13.77304 c 1.54019,-0.86939 2.22367,-2.4538 2.21782,-5.14123 -0.004,-1.73012 -0.12795,-2.37624 -0.66252,-3.44633 -1.2451,-2.49244 -2.19064,-2.7933 -8.80702,-2.80223 l -4.70395,-0.006 v 5.98874 5.98875 h 5.4629 c 5.12538,0 5.52654,-0.0359 6.49277,-0.58135 z m -0.56541,-18.91533 c 1.54985,-0.79529 2.19159,-2.05889 2.19159,-4.31528 0,-1.95527 -0.59539,-3.40897 -1.74119,-4.25141 -0.68922,-0.50671 -1.17941,-0.55585 -6.29404,-0.63099 l -5.54662,-0.0815 v 4.93901 4.93902 h 5.11156 c 4.77843,0 5.18766,-0.039 6.2787,-0.59887 z m 22.31795,26.66538 c -2.60718,-0.5156 -4.36944,-1.88435 -5.46013,-4.24089 -0.54377,-1.17484 -0.55578,-1.56014 -0.62905,-20.16208 l -0.0747,-18.96435 h 4.11609 4.1161 l 0.0148,16.70194 c 0.0159,17.82814 0.045,18.24583 1.31011,18.88693 0.49051,0.24857 2.81268,0.33674 8.94413,0.33966 l 8.281607,0.004 v 3.85943 3.8594 l -9.739167,-0.0292 c -5.35655,-0.016 -10.25255,-0.1307 -10.87999,-0.25478 z m 25.919387,-21.54168 v -21.82564 h 4.10768 4.10768 v 9.31582 9.31582 h 7.42032 7.42035 v -9.31582 -9.31582 h 4.24016 4.24021 v 21.82564 21.82563 h -4.24021 -4.24016 v -8.6504 -8.65041 h -7.42035 -7.42032 v 8.65041 8.6504 h -4.10768 -4.10768 z m 77.11839,0 v -21.82564 h 9.64962 c 10.54251,0 12.49222,0.1894 14.97918,1.45512 4.66822,2.37588 6.68554,8.5919 4.70286,14.49106 -0.67151,1.99807 -2.38845,4.08746 -3.77158,4.58978 -1.11274,0.40412 -1.15663,0.64206 -0.15558,0.84314 1.24576,0.25025 3.56579,2.59903 4.39068,4.44511 1.21595,2.72131 0.79039,9.73114 -0.17611,11.71515 -1.01909,2.09203 -2.30923,3.49347 -4.09156,4.44463 -2.78451,1.48594 -4.47887,1.66728 -15.57841,1.66728 h -9.9491 z m 20.14789,13.83705 c 2.72275,-1.3951 3.23628,-7.23508 0.86773,-9.86821 -1.22603,-1.36298 -2.53415,-1.6053 -8.17044,-1.51351 l -4.49731,0.0733 -0.0713,5.9222 -0.0713,5.9222 h 5.44838 c 4.93752,0 5.54643,-0.0503 6.4943,-0.53593 z m -0.0693,-19.11482 c 1.309,-0.93773 1.76975,-2.01872 1.77784,-4.17114 0.008,-2.07752 -0.49088,-3.24935 -1.80046,-4.23083 -0.69469,-0.52065 -1.13861,-0.5659 -6.29401,-0.64164 l -5.54662,-0.0815 v 4.95828 4.95829 l 5.49897,-0.0858 c 5.26393,-0.0821 5.53598,-0.11231 6.36428,-0.70567 z"
       id="path9"
       sodipodi:nodetypes="cssccccssssscccsssccccssssscsssssccsssscccssssssscccsscsscccssccccccccccccccccccccccccccccccccccsssssssssccssscccsssssscccss" />
  </g>
  <metadata
     id="metadata1">
    <rdf:RDF>
      <cc:Work
         rdf:about="">
        <dc:title>BLHub Logo</dc:title>
        <cc:license
           rdf:resource="http://creativecommons.org/licenses/by-nc-sa/4.0/" />
      </cc:Work>
      <cc:License
         rdf:about="http://creativecommons.org/licenses/by-nc-sa/4.0/">
        <cc:permits
           rdf:resource="http://creativecommons.org/ns#Reproduction" />
        <cc:permits
           rdf:resource="http://creativecommons.org/ns#Distribution" />
        <cc:requires
           rdf:resource="http://creativecommons.org/ns#Notice" />
        <cc:requires
           rdf:resource="http://creativecommons.org/ns#Attribution" />
        <cc:prohibits
           rdf:resource="http://creativecommons.org/ns#CommercialUse" />
        <cc:permits
           rdf:resource="http://creativecommons.org/ns#DerivativeWorks" />
        <cc:requires
           rdf:resource="http://creativecommons.org/ns#ShareAlike" />
      </cc:License>
    </rdf:RDF>
  </metadata>
</svg>
